<svg width="56" height="56" viewBox="0 0 56 56" fill="none" xmlns="http://www.w3.org/2000/svg">
<rect x="1" y="1" width="54" height="54" rx="27" stroke="#FF5F49" stroke-width="2"/>
<path d="M19.055 21.38H16.495V36H19.055V32.88L21.475 29.78L25.095 36H28.055L23.155 27.62L27.995 21.38H24.975L19.055 29.06V21.38ZM35.7516 30.96C38.6716 30.96 40.5916 28.98 40.5916 26.16C40.5916 23.3 38.6916 21.38 35.7516 21.38H29.9716V36H32.5316V30.96H35.7516ZM35.2516 23.66C36.9516 23.66 37.9116 24.54 37.9116 26.14C37.9116 27.74 36.9716 28.68 35.2116 28.68H32.5316V23.66H35.2516Z" fill="#FF5F49"/>
</svg>
