<svg width="16" height="16" viewBox="0 0 16 16" fill="none" xmlns="http://www.w3.org/2000/svg">
<path fill-rule="evenodd" clip-rule="evenodd" d="M15.7748 7.88742C15.7748 3.53133 12.2435 0 7.88742 0C3.53133 0 0 3.53133 0 7.88742C0 12.2435 3.53133 15.7748 7.88742 15.7748C12.2435 15.7748 15.7748 12.2435 15.7748 7.88742ZM7.88742 15.7748C7.35696 15.7748 6.83887 15.7221 6.33774 15.6223V9.61661H5.05139V7.47218H6.33774V6.18491C6.33774 4.43548 7.06394 3.39534 9.12749 3.39534H10.8454V5.53994H9.77157C8.96827 5.53994 8.91514 5.83947 8.91514 6.39873L8.91226 7.47202H10.8575L10.6298 9.61625H8.91226V15.7086C8.57242 15.7527 8.2301 15.7749 7.88742 15.7748Z" fill="#FF5F49"/>
</svg>
