<svg width="16" height="10" viewBox="0 0 16 10" fill="none" xmlns="http://www.w3.org/2000/svg">
<path d="M4.5125 0C7.00481 0 9.025 2.02421 9.025 4.52094C9.025 7.01773 7.00462 9.04176 4.5125 9.04176C2.0205 9.04176 0 7.01773 0 4.52094C0 2.02427 2.02031 0 4.5125 0ZM11.7188 0.264804C12.9649 0.264804 13.9751 2.17017 13.9751 4.52094H13.9753C13.9753 6.87115 12.9651 8.77708 11.719 8.77708C10.4729 8.77708 9.46269 6.87115 9.46269 4.52094C9.46269 2.17079 10.4727 0.264804 11.7188 0.264804H11.7188ZM15.2064 0.708154C15.6446 0.708154 16 2.4152 16 4.521C16 6.62612 15.6447 8.33385 15.2064 8.33385C14.7681 8.33385 14.4131 6.62662 14.4131 4.521C14.4131 2.41532 14.7683 0.708154 15.2064 0.708154Z" fill="#FF5F49"/>
</svg>
