<svg width="16" height="16" viewBox="0 0 16 16" fill="none" xmlns="http://www.w3.org/2000/svg">
<path d="M0 1.77146C0 1.25798 0.180185 0.834373 0.540541 0.50063C0.900896 0.166872 1.36937 0 1.94595 0C2.51223 0 2.97039 0.164299 3.32046 0.492928C3.68082 0.831816 3.861 1.27339 3.861 1.81767C3.861 2.3106 3.68598 2.72136 3.33591 3.04999C2.97555 3.38888 2.50193 3.55833 1.91506 3.55833H1.89961C1.33333 3.55833 0.875166 3.38888 0.525096 3.04999C0.175027 2.71111 0 2.28492 0 1.77146ZM0.200772 15.25V4.96009H3.62934V15.25H0.200772ZM5.52896 15.25H8.95753V9.50427C8.95753 9.14484 8.99872 8.86756 9.08108 8.67246C9.22522 8.32329 9.44401 8.02804 9.73745 7.78673C10.0309 7.54539 10.399 7.42473 10.8417 7.42473C11.9949 7.42473 12.5714 8.20006 12.5714 9.75074V15.25H16V9.35023C16 7.83037 15.6396 6.67764 14.9189 5.89203C14.1982 5.10643 13.2458 4.71363 12.0618 4.71363C10.7336 4.71363 9.69884 5.28357 8.95753 6.42347V6.45428H8.94208L8.95753 6.42347V4.96009H5.52896C5.54954 5.2887 5.55984 6.3105 5.55984 8.02549C5.55984 9.74046 5.54954 12.1486 5.52896 15.25Z" fill="#FF5F49"/>
</svg>
