<svg width="17" height="14" viewBox="0 0 17 14" fill="none" xmlns="http://www.w3.org/2000/svg">
<path d="M5.04461 13.0616C11.098 13.0616 14.4083 8.03695 14.4083 3.67972C14.4083 3.53703 14.4054 3.39498 14.399 3.25352C15.0431 2.78654 15.599 2.20835 16.0406 1.54604C15.4509 1.80871 14.8164 1.9855 14.1507 2.06521C14.8302 1.657 15.3518 1.0112 15.5979 0.241412C14.9519 0.625389 14.2451 0.896073 13.5081 1.0418C12.9076 0.400862 12.0526 0 11.1059 0C9.28847 0 7.81468 1.47668 7.81468 3.29692C7.81468 3.5557 7.8436 3.80734 7.90007 4.04878C5.16485 3.91088 2.73946 2.59878 1.11626 0.603643C0.823904 1.10686 0.670131 1.67877 0.670641 2.26097C0.670641 3.40497 1.25162 4.41487 2.13516 5.00571C1.61254 4.98972 1.10139 4.84828 0.64469 4.59329C0.644201 4.60713 0.644201 4.62062 0.644201 4.63541C0.644201 6.23229 1.77859 7.56559 3.28445 7.86771C3.00163 7.94488 2.70979 7.9839 2.41666 7.98373C2.20497 7.98373 1.99866 7.96286 1.79815 7.9243C2.21713 9.23445 3.43204 10.1878 4.87247 10.2145C3.74607 11.0991 2.32716 11.6259 0.785012 11.6259C0.522673 11.6262 0.260548 11.6109 0 11.5802C1.4565 12.5156 3.18595 13.0614 5.04478 13.0614" fill="#FF5F49"/>
</svg>
