<svg width="16" height="16" viewBox="0 0 16 16" fill="none" xmlns="http://www.w3.org/2000/svg">
<path fill-rule="evenodd" clip-rule="evenodd" d="M6.07015 4.56212C5.92342 4.23589 5.76893 4.22936 5.62934 4.22366C5.51516 4.21876 5.38444 4.21906 5.25394 4.21906C5.12333 4.21906 4.91109 4.26814 4.7316 4.46416C4.55201 4.66018 4.0459 5.13405 4.0459 6.09781C4.0459 7.06168 4.74793 7.993 4.84578 8.1238C4.94374 8.25441 6.20096 10.2954 8.19205 11.0806C9.84681 11.7331 10.1836 11.6033 10.5427 11.5707C10.9019 11.538 11.7017 11.0969 11.8649 10.6395C12.0282 10.1821 12.0282 9.79011 11.9792 9.70816C11.9303 9.62653 11.7996 9.57755 11.6037 9.47959C11.4078 9.38164 10.4448 8.90766 10.2652 8.84236C10.0856 8.77705 9.95498 8.7444 9.82437 8.94053C9.69376 9.13644 9.31856 9.57755 9.20428 9.70816C9.08999 9.83907 8.97571 9.8554 8.77979 9.75744C8.58388 9.65918 7.95297 9.45254 7.20452 8.7852C6.62218 8.26603 6.22902 7.62481 6.11474 7.42869C6.00045 7.23278 6.10248 7.12666 6.20076 7.029C6.28871 6.94124 6.39667 6.80033 6.49463 6.68594C6.59238 6.57155 6.62503 6.48992 6.69033 6.35931C6.75564 6.22849 6.72299 6.11411 6.67401 6.01615C6.62503 5.9182 6.24433 4.94946 6.07015 4.56212Z" fill="#FF5F49"/>
<path d="M13.5756 2.29991C12.0953 0.818604 10.127 0.00239218 8.02987 0.00146484C3.70838 0.00146484 0.191575 3.51713 0.189838 7.8384C0.189329 9.21972 0.550246 10.5681 1.23625 11.7566L0.124023 15.8178L4.28011 14.728C5.4252 15.3525 6.71447 15.6816 8.0265 15.6821H8.02983H8.02987C12.3506 15.6821 15.868 12.1658 15.8698 7.84472C15.8705 5.75047 15.0557 3.78132 13.5756 2.29991ZM8.02987 14.3584H8.02732C6.85784 14.3578 5.71101 14.0438 4.71072 13.4503L4.47265 13.3092L2.00635 13.9558L2.66481 11.552L2.50971 11.3056C1.85738 10.2684 1.51299 9.06972 1.5135 7.83892C1.51493 4.24723 4.43796 1.32523 8.03233 1.32523C9.77293 1.32595 11.4088 2.0044 12.6392 3.23562C13.8695 4.46683 14.5466 6.10354 14.546 7.84424C14.5445 11.436 11.6214 14.3584 8.02987 14.3584Z" fill="#FF5F49"/>
</svg>
